STARTFONT 2.3
FONT -FontForge-Courgette-Book-R-Normal--8-80-72-72-P-41-ISO10646-1
SIZE 8 72 72  4
FONTBOUNDINGBOX 11 12 -2 -3
COMMENT "Generated by fontforge, http://fontforge.sourceforge.net"
COMMENT "Copyright (c) 2012, Sorkin Type Co (www.sorkintype.com) with Reserved Font Name "Courgette"."
STARTPROPERTIES 41
FOUNDRY "FontForge"
FAMILY_NAME "Courgette"
WEIGHT_NAME "Book"
SLANT "R"
SETWIDTH_NAME "Normal"
ADD_STYLE_NAME ""
PIXEL_SIZE 8
POINT_SIZE 80
RESOLUTION_X 72
RESOLUTION_Y 72
SPACING "P"
AVERAGE_WIDTH 41
CHARSET_REGISTRY "ISO10646"
CHARSET_ENCODING "1"
FONTNAME_REGISTRY ""
CHARSET_COLLECTIONS "ISO8859-2 ISO8859-9 ISO8859-4 ISO10646-1"
BITS_PER_PIXEL 4
FONT_NAME "Courgette-Regular"
FACE_NAME "Courgette Regular"
COPYRIGHT "Copyright (c) 2012, Sorkin Type Co (www.sorkintype.com) with Reserved Font Name "Courgette"."
FONT_VERSION "1.002"
FONT_ASCENT 6
FONT_DESCENT 2
UNDERLINE_POSITION -1
UNDERLINE_THICKNESS 1
X_HEIGHT 3
CAP_HEIGHT 5
DEFAULT_CHAR 1
RAW_ASCENT 799
RAW_DESCENT 200
NORM_SPACE 2
RELATIVE_WEIGHT 40
RELATIVE_SETWIDTH 50
SUPERSCRIPT_X 0
SUPERSCRIPT_Y 3
SUPERSCRIPT_SIZE 5
SUBSCRIPT_X 0
SUBSCRIPT_Y 1
SUBSCRIPT_SIZE 5
AVG_LOWERCASE_WIDTH 38
AVG_UPPERCASE_WIDTH 47
ENDPROPERTIES
CHARS 407
STARTCHAR .null.dup1
ENCODING 0
SWIDTH 0 0
DWIDTH 0 0
BBX 1 1 0 0
BITMAP
00
ENDCHAR
STARTCHAR uni0001
ENCODING 1
SWIDTH 0 0
DWIDTH 0 0
BBX 1 1 0 0
BITMAP
00
ENDCHAR
STARTCHAR uni0002
ENCODING 2
SWIDTH 0 0
DWIDTH 0 0
BBX 1 1 0 0
BITMAP
00
ENDCHAR
STARTCHAR uni0003
ENCODING 3
SWIDTH 0 0
DWIDTH 0 0
BBX 1 1 0 0
BITMAP
00
ENDCHAR
STARTCHAR uni0004
ENCODING 4
SWIDTH 0 0
DWIDTH 0 0
BBX 1 1 0 0
BITMAP
00
ENDCHAR
STARTCHAR uni0005
ENCODING 5
SWIDTH 0 0
DWIDTH 0 0
BBX 1 1 0 0
BITMAP
00
ENDCHAR
STARTCHAR uni0006
ENCODING 6
SWIDTH 0 0
DWIDTH 0 0
BBX 1 1 0 0
BITMAP
00
ENDCHAR
STARTCHAR uni0007
ENCODING 7
SWIDTH 0 0
DWIDTH 0 0
BBX 1 1 0 0
BITMAP
00
ENDCHAR
STARTCHAR uni0008
ENCODING 8
SWIDTH 0 0
DWIDTH 0 0
BBX 1 1 0 0
BITMAP
00
ENDCHAR
STARTCHAR uni0009
ENCODING 9
SWIDTH 0 0
DWIDTH 0 0
BBX 1 1 0 0
BITMAP
00
ENDCHAR
STARTCHAR nonmarkingreturn
ENCODING 13
SWIDTH 0 0
DWIDTH 0 0
BBX 1 1 0 0
BITMAP
00
ENDCHAR
STARTCHAR uni0015
ENCODING 21
SWIDTH 0 0
DWIDTH 0 0
BBX 1 1 0 0
BITMAP
00
ENDCHAR
STARTCHAR uni0016
ENCODING 22
SWIDTH 0 0
DWIDTH 0 0
BBX 1 1 0 0
BITMAP
00
ENDCHAR
STARTCHAR uni0017
ENCODING 23
SWIDTH 0 0
DWIDTH 0 0
BBX 1 1 0 0
BITMAP
00
ENDCHAR
STARTCHAR uni0018
ENCODING 24
SWIDTH 0 0
DWIDTH 0 0
BBX 1 1 0 0
BITMAP
00
ENDCHAR
STARTCHAR uni0019
ENCODING 25
SWIDTH 0 0
DWIDTH 0 0
BBX 1 1 0 0
BITMAP
00
ENDCHAR
STARTCHAR space
ENCODING 32
SWIDTH 307 0
DWIDTH 2 0
BBX 1 1 0 0
BITMAP
00
ENDCHAR
STARTCHAR exclam
ENCODING 33
SWIDTH 417 0
DWIDTH 3 0
BBX 4 7 0 -1
BITMAP
0087
01D1
0670
0910
0400
4B00
0100
ENDCHAR
STARTCHAR quotedbl
ENCODING 34
SWIDTH 437 0
DWIDTH 4 0
BBX 3 2 1 4
BITMAP
95C0
8350
ENDCHAR
STARTCHAR numbersign
ENCODING 35
SWIDTH 725 0
DWIDTH 6 0
BBX 6 6 0 0
BITMAP
001973
0064B0
09DCC6
4BCDA1
072900
072500
ENDCHAR
STARTCHAR dollar
ENCODING 36
SWIDTH 545 0
DWIDTH 4 0
BBX 5 8 0 -1
BITMAP
000460
01AA50
0A3390
0C3A30
06B000
42B200
5B9000
170000
ENDCHAR
STARTCHAR percent
ENCODING 37
SWIDTH 876 0
DWIDTH 7 0
BBX 7 6 0 0
BITMAP
09A20A10
57A39300
28675000
00585820
0392A760
0902AA10
ENDCHAR
STARTCHAR ampersand
ENCODING 38
SWIDTH 563 0
DWIDTH 5 0
BBX 5 6 0 0
BITMAP
04B940
1D1670
2B1810
1C7000
956B40
799200
ENDCHAR
STARTCHAR quotesingle
ENCODING 39
SWIDTH 231 0
DWIDTH 2 0
BBX 2 2 1 4
BITMAP
94
80
ENDCHAR
STARTCHAR parenleft
ENCODING 40
SWIDTH 478 0
DWIDTH 4 0
BBX 5 9 0 -2
BITMAP
000550
005700
02A000
094000
0D0000
1C0000
1B0000
0C0000
056000
ENDCHAR
STARTCHAR parenright
ENCODING 41
SWIDTH 478 0
DWIDTH 4 0
BBX 5 9 -1 -2
BITMAP
006500
000C00
000B10
000C10
000D00
004900
00A200
066000
560000
ENDCHAR
STARTCHAR asterisk
ENCODING 42
SWIDTH 518 0
DWIDTH 4 0
BBX 3 3 1 3
BITMAP
2920
7C80
7730
ENDCHAR
STARTCHAR plus
ENCODING 43
SWIDTH 617 0
DWIDTH 5 0
BBX 5 4 0 1
BITMAP
007000
008000
38C830
008000
ENDCHAR
STARTCHAR comma
ENCODING 44
SWIDTH 312 0
DWIDTH 3 0
BBX 2 3 0 -1
BITMAP
42
76
81
ENDCHAR
STARTCHAR hyphen
ENCODING 45
SWIDTH 452 0
DWIDTH 4 0
BBX 3 1 0 2
BITMAP
2AA0
ENDCHAR
STARTCHAR period
ENCODING 46
SWIDTH 270 0
DWIDTH 2 0
BBX 2 2 0 -1
BITMAP
B5
10
ENDCHAR
STARTCHAR slash
ENCODING 47
SWIDTH 405 0
DWIDTH 3 0
BBX 6 9 -1 -1
BITMAP
000014
000083
000290
000A20
004800
00A100
056000
0A0000
640000
ENDCHAR
STARTCHAR zero
ENCODING 48
SWIDTH 621 0
DWIDTH 5 0
BBX 5 6 0 0
BITMAP
007990
0780C0
1D01C0
580680
751C10
3AA300
ENDCHAR
STARTCHAR one
ENCODING 49
SWIDTH 405 0
DWIDTH 3 0
BBX 4 6 0 0
BITMAP
03D3
06C1
02B0
0750
0A00
4400
ENDCHAR
STARTCHAR two
ENCODING 50
SWIDTH 524 0
DWIDTH 4 0
BBX 5 6 0 0
BITMAP
059A10
0D1930
054B00
03B200
3A1000
A8C600
ENDCHAR
STARTCHAR three
ENCODING 51
SWIDTH 537 0
DWIDTH 4 0
BBX 5 6 0 0
BITMAP
04AA20
0D1750
044C10
02C400
537600
79A100
ENDCHAR
STARTCHAR four
ENCODING 52
SWIDTH 529 0
DWIDTH 4 0
BBX 5 6 0 0
BITMAP
058000
0A4500
3A1D00
49BB10
00B000
035000
ENDCHAR
STARTCHAR five
ENCODING 53
SWIDTH 540 0
DWIDTH 4 0
BBX 5 6 0 0
BITMAP
02CB90
074000
0D9900
021D00
725900
789000
ENDCHAR
STARTCHAR six
ENCODING 54
SWIDTH 554 0
DWIDTH 4 0
BBX 5 6 0 0
BITMAP
008860
094760
2D8700
5C0C00
671C00
2AA200
ENDCHAR
STARTCHAR seven
ENCODING 55
SWIDTH 473 0
DWIDTH 4 0
BBX 5 6 0 0
BITMAP
0BAB30
003A00
01B100
086000
0D0000
190000
ENDCHAR
STARTCHAR eight
ENCODING 56
SWIDTH 524 0
DWIDTH 4 0
BBX 5 6 0 0
BITMAP
038B20
0A1850
097B10
09E100
757400
598100
ENDCHAR
STARTCHAR nine
ENCODING 57
SWIDTH 554 0
DWIDTH 4 0
BBX 5 6 0 0
BITMAP
03AB20
0C1760
1B0C40
098D10
324800
788000
ENDCHAR
STARTCHAR colon
ENCODING 58
SWIDTH 312 0
DWIDTH 3 0
BBX 2 5 0 -1
BITMAP
06
09
00
A6
10
ENDCHAR
STARTCHAR semicolon
ENCODING 59
SWIDTH 312 0
DWIDTH 3 0
BBX 3 5 0 -1
BITMAP
1E10
0100
4200
7600
8100
ENDCHAR
STARTCHAR less
ENCODING 60
SWIDTH 637 0
DWIDTH 5 0
BBX 5 5 0 0
BITMAP
000010
004930
296000
198100
002940
ENDCHAR
STARTCHAR equal
ENCODING 61
SWIDTH 617 0
DWIDTH 5 0
BBX 5 2 0 2
BITMAP
288840
388840
ENDCHAR
STARTCHAR greater
ENCODING 62
SWIDTH 606 0
DWIDTH 5 0
BBX 5 5 0 0
BITMAP
110000
296000
004B40
018810
392000
ENDCHAR
STARTCHAR question
ENCODING 63
SWIDTH 516 0
DWIDTH 4 0
BBX 5 6 0 0
BITMAP
02A920
056930
009900
086000
040000
4B0000
ENDCHAR
STARTCHAR at
ENCODING 64
SWIDTH 905 0
DWIDTH 7 0
BBX 8 7 0 -1
BITMAP
00389930
066001B0
29177591
74B3B290
83868710
49000000
04874000
ENDCHAR
STARTCHAR A
ENCODING 65
SWIDTH 615 0
DWIDTH 5 0
BBX 7 6 -1 0
BITMAP
00006D20
00075C00
00385800
02CADA00
0560C000
4901D400
ENDCHAR
STARTCHAR B
ENCODING 66
SWIDTH 551 0
DWIDTH 4 0
BBX 5 6 0 0
BITMAP
2A9A60
0862B0
1E2960
5DA900
931C00
699400
ENDCHAR
STARTCHAR C
ENCODING 67
SWIDTH 533 0
DWIDTH 4 0
BBX 5 6 0 0
BITMAP
008980
0962B0
3C0830
760000
950100
3B9500
ENDCHAR
STARTCHAR D
ENCODING 68
SWIDTH 630 0
DWIDTH 5 0
BBX 6 6 0 0
BITMAP
1C9A60
0470C1
0B30C1
3B03B0
762C20
6AA200
ENDCHAR
STARTCHAR E
ENCODING 69
SWIDTH 509 0
DWIDTH 4 0
BBX 5 6 0 0
BITMAP
03B960
0D3680
1C0610
1C9000
960200
6A9300
ENDCHAR
STARTCHAR F
ENCODING 70
SWIDTH 518 0
DWIDTH 4 0
BBX 5 6 0 0
BITMAP
5CCB80
41B100
02C000
0BB700
0C1000
750000
ENDCHAR
STARTCHAR G
ENCODING 71
SWIDTH 598 0
DWIDTH 5 0
BBX 5 6 0 0
BITMAP
008980
0973B0
3C0520
774E70
850900
3B8200
ENDCHAR
STARTCHAR H
ENCODING 72
SWIDTH 668 0
DWIDTH 5 0
BBX 7 6 -1 0
BITMAP
01B90480
00570940
00A99E30
02C04A00
06509300
2900A600
ENDCHAR
STARTCHAR I
ENCODING 73
SWIDTH 327 0
DWIDTH 3 0
BBX 3 6 0 0
BITMAP
1AA0
04A0
0860
0C10
4900
A100
ENDCHAR
STARTCHAR J
ENCODING 74
SWIDTH 393 0
DWIDTH 3 0
BBX 6 8 -2 -2
BITMAP
004BC4
0032A4
0000D1
000590
000B30
004A00
01B200
293000
ENDCHAR
STARTCHAR K
ENCODING 75
SWIDTH 616 0
DWIDTH 5 0
BBX 7 6 -1 0
BITMAP
03C60B10
00861C00
00C4A200
01DC1000
08688000
2A01C700
ENDCHAR
STARTCHAR L
ENCODING 76
SWIDTH 517 0
DWIDTH 4 0
BBX 6 6 -1 0
BITMAP
0008A4
005956
00C5C1
02B000
084000
1D9B80
ENDCHAR
STARTCHAR M
ENCODING 77
SWIDTH 931 0
DWIDTH 7 0
BBX 9 6 -1 0
BITMAP
0002A71B60
0009B39B20
0074D56B00
01949A6700
0925D49400
6604A07B10
ENDCHAR
STARTCHAR N
ENCODING 78
SWIDTH 708 0
DWIDTH 6 0
BBX 7 6 0 0
BITMAP
00B50D10
07B40C10
19851A00
65687300
A12C8000
A00A3000
ENDCHAR
STARTCHAR O
ENCODING 79
SWIDTH 655 0
DWIDTH 5 0
BBX 6 6 0 0
BITMAP
0089A1
088085
2D00A4
6801D0
750A50
2A9600
ENDCHAR
STARTCHAR P
ENCODING 80
SWIDTH 553 0
DWIDTH 4 0
BBX 6 6 -1 0
BITMAP
01B987
00580D
00A497
01D840
076000
2A0000
ENDCHAR
STARTCHAR Q
ENCODING 81
SWIDTH 655 0
DWIDTH 5 0
BBX 6 7 0 -1
BITMAP
008890
096084
2C00B2
5803B0
3B2B20
07D600
0027B6
ENDCHAR
STARTCHAR R
ENCODING 82
SWIDTH 623 0
DWIDTH 5 0
BBX 6 6 -1 0
BITMAP
00AA97
00480D
009579
01DC60
067670
1A00C5
ENDCHAR
STARTCHAR S
ENCODING 83
SWIDTH 474 0
DWIDTH 4 0
BBX 5 6 0 0
BITMAP
05AA20
0D0750
1E1B10
097000
70C000
896000
ENDCHAR
STARTCHAR T
ENCODING 84
SWIDTH 471 0
DWIDTH 4 0
BBX 5 6 0 0
BITMAP
4CCB90
319300
00D000
049000
093000
380000
ENDCHAR
STARTCHAR U
ENCODING 85
SWIDTH 624 0
DWIDTH 5 0
BBX 6 6 0 0
BITMAP
059066
0760D1
0C17A0
581E50
B28B10
AA2A70
ENDCHAR
STARTCHAR V
ENCODING 86
SWIDTH 587 0
DWIDTH 5 0
BBX 6 6 0 0
BITMAP
2CB049
02C049
0A51C2
1C1B30
49A200
3C2000
ENDCHAR
STARTCHAR W
ENCODING 87
SWIDTH 941 0
DWIDTH 8 0
BBX 8 6 0 0
BITMAP
2CA0002C
03B0750E
0B38D02C
2B6B7076
698842A0
4B05A810
ENDCHAR
STARTCHAR X
ENCODING 88
SWIDTH 552 0
DWIDTH 4 0
BBX 7 6 -1 0
BITMAP
00390A50
00499400
003E6000
004D0000
02AB3000
2A14C300
ENDCHAR
STARTCHAR Y
ENCODING 89
SWIDTH 580 0
DWIDTH 5 0
BBX 6 8 0 -2
BITMAP
059066
0861D1
0C07A0
671E40
B28C00
BA7600
02A000
391000
ENDCHAR
STARTCHAR Z
ENCODING 90
SWIDTH 501 0
DWIDTH 4 0
BBX 6 6 -1 0
BITMAP
00BBB9
0002E4
002D50
01C600
097000
1D9B70
ENDCHAR
STARTCHAR bracketleft
ENCODING 91
SWIDTH 396 0
DWIDTH 3 0
BBX 5 9 0 -2
BITMAP
004910
00A300
01C000
057000
0B2000
1C0000
670000
B20000
A30000
ENDCHAR
STARTCHAR backslash
ENCODING 92
SWIDTH 464 0
DWIDTH 4 0
BBX 3 9 0 -1
BITMAP
4000
6300
3700
0A00
0900
0640
0270
00A0
0080
ENDCHAR
STARTCHAR bracketright
ENCODING 93
SWIDTH 394 0
DWIDTH 3 0
BBX 5 9 -1 -2
BITMAP
000670
000670
000B20
001B00
006600
00B100
01A000
075000
291000
ENDCHAR
STARTCHAR asciicircum
ENCODING 94
SWIDTH 540 0
DWIDTH 4 0
BBX 5 4 0 2
BITMAP
00C100
06B700
0A0A00
120310
ENDCHAR
STARTCHAR underscore
ENCODING 95
SWIDTH 530 0
DWIDTH 4 0
BBX 6 1 -2 -2
BITMAP
1AAAA8
ENDCHAR
STARTCHAR grave
ENCODING 96
SWIDTH 219 0
DWIDTH 2 0
BBX 2 2 0 4
BITMAP
93
54
ENDCHAR
STARTCHAR a
ENCODING 97
SWIDTH 541 0
DWIDTH 4 0
BBX 5 4 0 0
BITMAP
078C30
582B00
A3A600
7A8B00
ENDCHAR
STARTCHAR b
ENCODING 98
SWIDTH 525 0
DWIDTH 4 0
BBX 4 7 0 0
BITMAP
0220
0850
0B10
1D9A
6A1D
A269
6991
ENDCHAR
STARTCHAR c
ENCODING 99
SWIDTH 465 0
DWIDTH 4 0
BBX 4 4 0 0
BITMAP
0897
6857
A310
6B80
ENDCHAR
STARTCHAR d
ENCODING 100
SWIDTH 557 0
DWIDTH 4 0
BBX 6 7 0 0
BITMAP
000041
0000C0
000580
068D30
491C00
948900
7A7C20
ENDCHAR
STARTCHAR e
ENCODING 101
SWIDTH 471 0
DWIDTH 4 0
BBX 4 4 0 0
BITMAP
0797
5977
9850
5B91
ENDCHAR
STARTCHAR f
ENCODING 102
SWIDTH 393 0
DWIDTH 3 0
BBX 6 8 -1 -1
BITMAP
000581
002AA3
007510
03DB30
01C000
067000
0B2000
190000
ENDCHAR
STARTCHAR g
ENCODING 103
SWIDTH 526 0
DWIDTH 4 0
BBX 5 6 0 -2
BITMAP
077A20
581D00
A38800
7AC300
01B000
2A2000
ENDCHAR
STARTCHAR h
ENCODING 104
SWIDTH 555 0
DWIDTH 4 0
BBX 5 7 0 0
BITMAP
014000
049000
075000
0B7D10
2D4C00
876700
B06A00
ENDCHAR
STARTCHAR i
ENCODING 105
SWIDTH 286 0
DWIDTH 2 0
BBX 3 6 0 0
BITMAP
0770
0100
0D00
2A00
8300
A600
ENDCHAR
STARTCHAR j
ENCODING 106
SWIDTH 281 0
DWIDTH 2 0
BBX 5 8 -2 -2
BITMAP
000B40
000100
001D00
001B00
006700
00C200
049000
291000
ENDCHAR
STARTCHAR k
ENCODING 107
SWIDTH 497 0
DWIDTH 4 0
BBX 4 7 0 0
BITMAP
0140
0490
0750
0B1D
2B96
8C60
B1C6
ENDCHAR
STARTCHAR l
ENCODING 108
SWIDTH 279 0
DWIDTH 2 0
BBX 3 7 0 0
BITMAP
0230
0670
0A30
0C00
4800
9300
9700
ENDCHAR
STARTCHAR m
ENCODING 109
SWIDTH 814 0
DWIDTH 7 0
BBX 7 4 0 0
BITMAP
0D6C5D20
2D4C5C00
874A5800
B0925B00
ENDCHAR
STARTCHAR n
ENCODING 110
SWIDTH 561 0
DWIDTH 4 0
BBX 5 4 0 0
BITMAP
0D6D10
2D4C00
875700
B06B00
ENDCHAR
STARTCHAR o
ENCODING 111
SWIDTH 514 0
DWIDTH 4 0
BBX 4 4 0 0
BITMAP
0888
692C
A378
6990
ENDCHAR
STARTCHAR p
ENCODING 112
SWIDTH 550 0
DWIDTH 4 0
BBX 6 6 -1 -2
BITMAP
02B8B0
04D1D1
0863B0
0B9A10
2B0000
650000
ENDCHAR
STARTCHAR q
ENCODING 113
SWIDTH 533 0
DWIDTH 4 0
BBX 5 6 0 -2
BITMAP
078A30
591D10
948800
6AC200
00B000
00A000
ENDCHAR
STARTCHAR r
ENCODING 114
SWIDTH 407 0
DWIDTH 3 0
BBX 4 4 0 0
BITMAP
1C88
2D30
7800
B100
ENDCHAR
STARTCHAR s
ENCODING 115
SWIDTH 423 0
DWIDTH 3 0
BBX 4 4 0 0
BITMAP
1AA3
2C31
1960
A940
ENDCHAR
STARTCHAR t
ENCODING 116
SWIDTH 358 0
DWIDTH 3 0
BBX 4 5 0 0
BITMAP
0480
1E82
1B00
5700
4B50
ENDCHAR
STARTCHAR u
ENCODING 117
SWIDTH 553 0
DWIDTH 4 0
BBX 5 4 0 0
BITMAP
0D0930
2B3C00
95A700
A96A00
ENDCHAR
STARTCHAR v
ENCODING 118
SWIDTH 510 0
DWIDTH 4 0
BBX 4 4 0 0
BITMAP
0D1C
2B0C
8466
A960
ENDCHAR
STARTCHAR w
ENCODING 119
SWIDTH 750 0
DWIDTH 6 0
BBX 6 4 0 0
BITMAP
1D081C
1B6A0B
77C555
975B60
ENDCHAR
STARTCHAR x
ENCODING 120
SWIDTH 467 0
DWIDTH 4 0
BBX 5 4 -1 0
BITMAP
01A590
01E800
02E300
1A4C20
ENDCHAR
STARTCHAR y
ENCODING 121
SWIDTH 549 0
DWIDTH 4 0
BBX 5 7 0 -3
BITMAP
0D0840
2B2E00
85A900
AA9300
02A000
2A2000
100000
ENDCHAR
STARTCHAR z
ENCODING 122
SWIDTH 430 0
DWIDTH 3 0
BBX 4 4 0 0
BITMAP
0998
04B1
5A00
C990
ENDCHAR
STARTCHAR braceleft
ENCODING 123
SWIDTH 424 0
DWIDTH 3 0
BBX 5 9 0 -2
BITMAP
001820
006700
00A200
01B000
1B3000
0C0000
2B0000
750000
450000
ENDCHAR
STARTCHAR bar
ENCODING 124
SWIDTH 306 0
DWIDTH 2 0
BBX 1 9 1 -1
BITMAP
30
B0
B0
B0
B0
B0
B0
B0
90
ENDCHAR
STARTCHAR braceright
ENCODING 125
SWIDTH 424 0
DWIDTH 3 0
BBX 5 9 -1 -2
BITMAP
000630
000760
000C10
000C00
004B00
00C000
048000
084000
280000
ENDCHAR
STARTCHAR asciitilde
ENCODING 126
SWIDTH 624 0
DWIDTH 5 0
BBX 5 2 0 2
BITMAP
1AA160
517B30
ENDCHAR
STARTCHAR nonbreakingspace
ENCODING 160
SWIDTH 293 0
DWIDTH 2 0
BBX 1 1 0 0
BITMAP
00
ENDCHAR
STARTCHAR exclamdown
ENCODING 161
SWIDTH 417 0
DWIDTH 3 0
BBX 3 7 0 -2
BITMAP
02D0
0230
0A00
4900
A500
B200
1000
ENDCHAR
STARTCHAR cent
ENCODING 162
SWIDTH 487 0
DWIDTH 4 0
BBX 4 6 0 0
BITMAP
0019
05A8
2C3A
5801
1C82
0700
ENDCHAR
STARTCHAR sterling
ENCODING 163
SWIDTH 665 0
DWIDTH 5 0
BBX 7 6 -1 0
BITMAP
00009A30
00059650
000C4C10
008E7000
07C70100
1A99C800
ENDCHAR
STARTCHAR currency
ENCODING 164
SWIDTH 572 0
DWIDTH 5 0
BBX 5 6 0 0
BITMAP
024030
04BA40
0C2C10
1B2C00
498600
000100
ENDCHAR
STARTCHAR yen
ENCODING 165
SWIDTH 583 0
DWIDTH 5 0
BBX 6 6 0 0
BITMAP
3C1096
066870
01B900
07E600
19C400
055000
ENDCHAR
STARTCHAR brokenbar
ENCODING 166
SWIDTH 292 0
DWIDTH 2 0
BBX 2 9 0 -1
BITMAP
16
29
29
28
00
16
29
29
28
ENDCHAR
STARTCHAR section
ENCODING 167
SWIDTH 583 0
DWIDTH 5 0
BBX 5 9 0 -2
BITMAP
005740
01D1B0
01E660
09C600
3A3C00
1E1C00
08B200
A29000
782000
ENDCHAR
STARTCHAR dieresis
ENCODING 168
SWIDTH 412 0
DWIDTH 3 0
BBX 4 2 0 4
BITMAP
86B3
1010
ENDCHAR
STARTCHAR copyright
ENCODING 169
SWIDTH 871 0
DWIDTH 7 0
BBX 7 6 0 0
BITMAP
00899800
09488570
3885A1A0
55C02370
29585A10
06A9A200
ENDCHAR
STARTCHAR ordfeminine
ENCODING 170
SWIDTH 564 0
DWIDTH 5 0
BBX 5 4 0 2
BITMAP
018840
0A2C10
1B5A00
0A6A10
ENDCHAR
STARTCHAR guillemotleft
ENCODING 171
SWIDTH 662 0
DWIDTH 5 0
BBX 5 3 0 1
BITMAP
047470
4A4A00
084840
ENDCHAR
STARTCHAR logicalnot
ENCODING 172
SWIDTH 729 0
DWIDTH 6 0
BBX 6 3 0 0
BITMAP
2999A1
000091
000070
ENDCHAR
STARTCHAR uni00AD
ENCODING 173
SWIDTH 833 0
DWIDTH 7 0
BBX 1 1 0 0
BITMAP
00
ENDCHAR
STARTCHAR registered
ENCODING 174
SWIDTH 742 0
DWIDTH 6 0
BBX 6 5 0 1
BITMAP
029992
097868
359A18
185583
047730
ENDCHAR
STARTCHAR macron
ENCODING 175
SWIDTH 392 0
DWIDTH 3 0
BBX 4 1 0 4
BITMAP
3AA2
ENDCHAR
STARTCHAR degree
ENCODING 176
SWIDTH 405 0
DWIDTH 3 0
BBX 4 3 0 3
BITMAP
0895
1A84
0430
ENDCHAR
STARTCHAR plusminus
ENCODING 177
SWIDTH 617 0
DWIDTH 5 0
BBX 5 5 0 0
BITMAP
008000
38C830
009000
007000
388830
ENDCHAR
STARTCHAR twosuperior
ENCODING 178
SWIDTH 458 0
DWIDTH 4 0
BBX 4 4 0 2
BITMAP
0688
0669
0670
3AA2
ENDCHAR
STARTCHAR threesuperior
ENCODING 179
SWIDTH 430 0
DWIDTH 3 0
BBX 4 4 0 2
BITMAP
0589
0496
24C1
2760
ENDCHAR
STARTCHAR acute
ENCODING 180
SWIDTH 322 0
DWIDTH 3 0
BBX 3 2 0 4
BITMAP
0550
1910
ENDCHAR
STARTCHAR mu
ENCODING 181
SWIDTH 618 0
DWIDTH 5 0
BBX 6 6 -1 -2
BITMAP
008449
02C0C3
0877C0
0CB4C3
190000
370000
ENDCHAR
STARTCHAR paragraph
ENCODING 182
SWIDTH 739 0
DWIDTH 6 0
BBX 7 7 0 -1
BITMAP
0038AC70
03FF4C00
06FE2A00
009A6600
0096A100
86C29000
58251000
ENDCHAR
STARTCHAR periodcentered
ENCODING 183
SWIDTH 353 0
DWIDTH 3 0
BBX 2 2 1 1
BITMAP
E2
10
ENDCHAR
STARTCHAR cedilla
ENCODING 184
SWIDTH 301 0
DWIDTH 2 0
BBX 2 2 0 -2
BITMAP
08
3A
ENDCHAR
STARTCHAR onesuperior
ENCODING 185
SWIDTH 403 0
DWIDTH 3 0
BBX 3 4 1 2
BITMAP
3D20
4C00
5700
9000
ENDCHAR
STARTCHAR ordmasculine
ENCODING 186
SWIDTH 498 0
DWIDTH 4 0
BBX 4 4 0 2
BITMAP
0187
0B2C
2B3A
0771
ENDCHAR
STARTCHAR guillemotright
ENCODING 187
SWIDTH 665 0
DWIDTH 5 0
BBX 5 3 0 1
BITMAP
0A2A20
05A5A0
374700
ENDCHAR
STARTCHAR onequarter
ENCODING 188
SWIDTH 988 0
DWIDTH 8 0
BBX 8 7 0 0
BITMAP
00000400
03D06500
17B1A100
06583C00
0A294891
00A159D1
03700720
ENDCHAR
STARTCHAR onehalf
ENCODING 189
SWIDTH 988 0
DWIDTH 8 0
BBX 8 6 0 0
BITMAP
03D03800
17C0A100
06665993
0A2A0AA4
12920960
03709C80
ENDCHAR
STARTCHAR threequarters
ENCODING 190
SWIDTH 1007 0
DWIDTH 8 0
BBX 8 7 0 0
BITMAP
00000410
08951A00
06A39510
53C39852
473A2A64
004719C3
00A00350
ENDCHAR
STARTCHAR questiondown
ENCODING 191
SWIDTH 516 0
DWIDTH 4 0
BBX 4 6 0 -2
BITMAP
0058
0050
06A0
7A20
B2B0
6830
ENDCHAR
STARTCHAR Agrave
ENCODING 192
SWIDTH 615 0
DWIDTH 5 0
BBX 7 8 -1 0
BITMAP
00005600
00001500
00006D20
00075C00
00385800
02CADA00
0560C000
4901D400
ENDCHAR
STARTCHAR Aacute
ENCODING 193
SWIDTH 615 0
DWIDTH 5 0
BBX 7 8 -1 0
BITMAP
00000370
00000510
00006D20
00075C00
00385800
02CADA00
0560C000
4901D400
ENDCHAR
STARTCHAR Acircumflex
ENCODING 194
SWIDTH 615 0
DWIDTH 5 0
BBX 7 8 -1 0
BITMAP
00001A30
00005240
00006D20
00075C00
00385800
02CADA00
0560C000
4901D400
ENDCHAR
STARTCHAR Atilde
ENCODING 195
SWIDTH 615 0
DWIDTH 5 0
BBX 7 8 -1 0
BITMAP
00006940
00004860
00006D20
00075C00
00385800
02CADA00
0560C000
4901D400
ENDCHAR
STARTCHAR Adieresis
ENCODING 196
SWIDTH 615 0
DWIDTH 5 0
BBX 7 8 -1 0
BITMAP
00006160
00008280
00006D20
00075C00
00385800
02CADA00
0560C000
4901D400
ENDCHAR
STARTCHAR Aring
ENCODING 197
SWIDTH 615 0
DWIDTH 5 0
BBX 7 8 -1 0
BITMAP
00001750
00006680
00007F20
00075C00
00385800
02CADA00
0560C000
4901D400
ENDCHAR
STARTCHAR AE
ENCODING 198
SWIDTH 878 0
DWIDTH 7 0
BBX 9 6 -1 0
BITMAP
00008CB860
00076D3770
002A1B0600
02CBBF9000
0660870200
4900788300
ENDCHAR
STARTCHAR Ccedilla
ENCODING 199
SWIDTH 533 0
DWIDTH 4 0
BBX 5 8 0 -2
BITMAP
008980
0962B0
3C0840
770000
860100
3B8600
091000
150000
ENDCHAR
STARTCHAR Egrave
ENCODING 200
SWIDTH 509 0
DWIDTH 4 0
BBX 5 8 0 0
BITMAP
004800
000500
03B960
0D3680
1C0610
1C9000
960200
6A9300
ENDCHAR
STARTCHAR Eacute
ENCODING 201
SWIDTH 509 0
DWIDTH 4 0
BBX 5 8 0 0
BITMAP
000290
000410
03B960
0D3680
1C0610
1C9000
960200
6A9300
ENDCHAR
STARTCHAR Ecircumflex
ENCODING 202
SWIDTH 509 0
DWIDTH 4 0
BBX 5 8 0 0
BITMAP
000950
004250
03B960
0D3680
1C0610
1C9000
960200
6A9300
ENDCHAR
STARTCHAR Edieresis
ENCODING 203
SWIDTH 509 0
DWIDTH 4 0
BBX 5 8 0 0
BITMAP
005260
007280
03B960
0D3680
1C0610
1C9000
960200
6A9300
ENDCHAR
STARTCHAR Igrave
ENCODING 204
SWIDTH 327 0
DWIDTH 3 0
BBX 3 8 0 0
BITMAP
0560
0050
1AA0
04A0
0860
0C10
4900
A100
ENDCHAR
STARTCHAR Iacute
ENCODING 205
SWIDTH 327 0
DWIDTH 3 0
BBX 4 8 0 0
BITMAP
0038
0051
1AA0
04A0
0860
0C10
4900
A100
ENDCHAR
STARTCHAR Icircumflex
ENCODING 206
SWIDTH 327 0
DWIDTH 3 0
BBX 4 8 0 0
BITMAP
01A4
0525
1AA0
04A0
0860
0C10
4900
A100
ENDCHAR
STARTCHAR Idieresis
ENCODING 207
SWIDTH 327 0
DWIDTH 3 0
BBX 4 8 0 0
BITMAP
0616
0828
1AA0
04A0
0860
0C10
4900
A100
ENDCHAR
STARTCHAR Eth
ENCODING 208
SWIDTH 630 0
DWIDTH 5 0
BBX 6 6 0 0
BITMAP
1C9A60
0670C1
7EB1C1
4904A0
852C20
7A9200
ENDCHAR
STARTCHAR Ntilde
ENCODING 209
SWIDTH 708 0
DWIDTH 6 0
BBX 7 8 0 0
BITMAP
0003B240
00054910
00B50D10
07B40C10
19851A00
65687300
A12C8000
A00A3000
ENDCHAR
STARTCHAR Ograve
ENCODING 210
SWIDTH 655 0
DWIDTH 5 0
BBX 6 8 0 0
BITMAP
000830
000140
0089A1
088085
2D00A4
6801D0
750A50
2A9600
ENDCHAR
STARTCHAR Oacute
ENCODING 211
SWIDTH 655 0
DWIDTH 5 0
BBX 6 8 0 0
BITMAP
000065
000050
0089A1
088085
2D00A4
6801D0
750A50
2A9600
ENDCHAR
STARTCHAR Ocircumflex
ENCODING 212
SWIDTH 655 0
DWIDTH 5 0
BBX 6 8 0 0
BITMAP
0002B2
000633
0089A1
088085
2D00A4
6801D0
750A50
2A9600
ENDCHAR
STARTCHAR Otilde
ENCODING 213
SWIDTH 655 0
DWIDTH 5 0
BBX 6 8 0 0
BITMAP
000875
001494
0089A1
088085
2D00A4
6801D0
750A50
2A9600
ENDCHAR
STARTCHAR Odieresis
ENCODING 214
SWIDTH 655 0
DWIDTH 5 0
BBX 6 8 0 0
BITMAP
000625
000827
0089A1
088085
2D00A4
6801D0
750A50
2A9600
ENDCHAR
STARTCHAR multiply
ENCODING 215
SWIDTH 573 0
DWIDTH 5 0
BBX 4 4 0 1
BITMAP
0101
1939
03E2
1929
ENDCHAR
STARTCHAR Oslash
ENCODING 216
SWIDTH 655 0
DWIDTH 5 0
BBX 6 8 0 -1
BITMAP
000015
005AE5
04B589
0C3768
2B61C3
4B6690
1E9800
130000
ENDCHAR
STARTCHAR Ugrave
ENCODING 217
SWIDTH 624 0
DWIDTH 5 0
BBX 6 8 0 0
BITMAP
000B00
000420
059066
0760D1
0C17A0
581E50
B28B10
AA2A70
ENDCHAR
STARTCHAR Uacute
ENCODING 218
SWIDTH 624 0
DWIDTH 5 0
BBX 6 8 0 0
BITMAP
0000A0
000330
059066
0760D1
0C17A0
581E50
B28B10
AA2A70
ENDCHAR
STARTCHAR Ucircumflex
ENCODING 219
SWIDTH 624 0
DWIDTH 5 0
BBX 6 8 0 0
BITMAP
000680
003350
059066
0760D1
0C17A0
581E50
B28B10
AA2A70
ENDCHAR
STARTCHAR Udieresis
ENCODING 220
SWIDTH 624 0
DWIDTH 5 0
BBX 6 8 0 0
BITMAP
003452
004462
059066
0760D1
0C17A0
581E50
B28B10
AA2A70
ENDCHAR
STARTCHAR Yacute
ENCODING 221
SWIDTH 580 0
DWIDTH 5 0
BBX 6 10 0 -2
BITMAP
0001A0
000330
059066
0861D1
0C07A0
671E40
B28C00
BA7600
02A000
391000
ENDCHAR
STARTCHAR Thorn
ENCODING 222
SWIDTH 527 0
DWIDTH 4 0
BBX 6 6 -1 0
BITMAP
03C600
008A70
00B194
02B4C1
088610
290000
ENDCHAR
STARTCHAR germandbls
ENCODING 223
SWIDTH 520 0
DWIDTH 4 0
BBX 6 8 -1 -1
BITMAP
000881
007674
00C1C1
02A920
067B20
0A44B0
0D5970
480000
ENDCHAR
STARTCHAR agrave
ENCODING 224
SWIDTH 541 0
DWIDTH 4 0
BBX 5 6 0 0
BITMAP
009200
004300
078C30
582B00
A3A600
7A8B00
ENDCHAR
STARTCHAR aacute
ENCODING 225
SWIDTH 541 0
DWIDTH 4 0
BBX 5 7 0 0
BITMAP
000300
003A00
004000
078C30
582B00
A3A600
7A8B00
ENDCHAR
STARTCHAR acircumflex
ENCODING 226
SWIDTH 541 0
DWIDTH 4 0
BBX 5 7 0 0
BITMAP
000100
006D00
033320
078C30
582B00
A3A600
7A8B00
ENDCHAR
STARTCHAR atilde
ENCODING 227
SWIDTH 541 0
DWIDTH 4 0
BBX 5 6 0 0
BITMAP
03AA40
000000
078C30
582B00
A3A600
7A8B00
ENDCHAR
STARTCHAR adieresis
ENCODING 228
SWIDTH 541 0
DWIDTH 4 0
BBX 5 6 0 0
BITMAP
04A770
001100
078C30
582B00
A3A600
7A8B00
ENDCHAR
STARTCHAR aring
ENCODING 229
SWIDTH 541 0
DWIDTH 4 0
BBX 5 6 0 0
BITMAP
009A10
007600
078C30
582B00
A3A600
7A8B00
ENDCHAR
STARTCHAR ae
ENCODING 230
SWIDTH 769 0
DWIDTH 6 0
BBX 6 4 0 0
BITMAP
078C9C
582D4D
A39B62
7A4B95
ENDCHAR
STARTCHAR ccedilla
ENCODING 231
SWIDTH 465 0
DWIDTH 4 0
BBX 4 6 0 -2
BITMAP
0897
6867
A300
8B80
0900
3A00
ENDCHAR
STARTCHAR egrave
ENCODING 232
SWIDTH 471 0
DWIDTH 4 0
BBX 4 6 0 0
BITMAP
00B0
0060
0797
5977
9850
5B91
ENDCHAR
STARTCHAR eacute
ENCODING 233
SWIDTH 471 0
DWIDTH 4 0
BBX 4 7 0 0
BITMAP
0012
0076
0040
0797
5977
9850
5B91
ENDCHAR
STARTCHAR ecircumflex
ENCODING 234
SWIDTH 471 0
DWIDTH 4 0
BBX 4 7 0 0
BITMAP
0001
018A
0515
0797
5977
9850
5B91
ENDCHAR
STARTCHAR edieresis
ENCODING 235
SWIDTH 471 0
DWIDTH 4 0
BBX 5 6 0 0
BITMAP
095C30
010100
079700
598600
973000
5B9100
ENDCHAR
STARTCHAR igrave
ENCODING 236
SWIDTH 286 0
DWIDTH 2 0
BBX 3 6 0 0
BITMAP
0B00
0510
0D00
2A00
8300
A600
ENDCHAR
STARTCHAR iacute
ENCODING 237
SWIDTH 286 0
DWIDTH 2 0
BBX 3 7 0 0
BITMAP
0030
0490
0400
0D00
2A00
8300
A600
ENDCHAR
STARTCHAR icircumflex
ENCODING 238
SWIDTH 286 0
DWIDTH 2 0
BBX 4 7 0 0
BITMAP
0010
07C0
4241
0D00
2A00
8300
A600
ENDCHAR
STARTCHAR idieresis
ENCODING 239
SWIDTH 286 0
DWIDTH 2 0
BBX 4 6 0 0
BITMAP
6895
1110
0D00
2A00
8300
A600
ENDCHAR
STARTCHAR eth
ENCODING 240
SWIDTH 524 0
DWIDTH 4 0
BBX 5 7 0 0
BITMAP
000400
001CA0
003830
078D20
591C00
A48600
7A8000
ENDCHAR
STARTCHAR ntilde
ENCODING 241
SWIDTH 561 0
DWIDTH 4 0
BBX 5 6 0 0
BITMAP
02AA40
000000
0D6D10
2D4C00
875700
B06B00
ENDCHAR
STARTCHAR ograve
ENCODING 242
SWIDTH 514 0
DWIDTH 4 0
BBX 4 6 0 0
BITMAP
0083
0033
0888
692C
A378
6990
ENDCHAR
STARTCHAR oacute
ENCODING 243
SWIDTH 514 0
DWIDTH 4 0
BBX 4 7 0 0
BITMAP
0003
002B
0041
0888
692C
A378
6990
ENDCHAR
STARTCHAR ocircumflex
ENCODING 244
SWIDTH 514 0
DWIDTH 4 0
BBX 5 7 0 0
BITMAP
000100
005D10
024320
088800
692C00
A37800
699000
ENDCHAR
STARTCHAR otilde
ENCODING 245
SWIDTH 514 0
DWIDTH 4 0
BBX 5 6 0 0
BITMAP
02AA50
000000
088800
692C00
A37800
699000
ENDCHAR
STARTCHAR odieresis
ENCODING 246
SWIDTH 514 0
DWIDTH 4 0
BBX 5 6 0 0
BITMAP
03B680
001110
088800
692C00
A37800
699000
ENDCHAR
STARTCHAR divide
ENCODING 247
SWIDTH 617 0
DWIDTH 5 0
BBX 5 5 0 0
BITMAP
002000
009100
288840
00A000
003000
ENDCHAR
STARTCHAR oslash
ENCODING 248
SWIDTH 514 0
DWIDTH 4 0
BBX 5 6 0 -1
BITMAP
000510
08AA00
597C00
A87800
7B9000
300000
ENDCHAR
STARTCHAR ugrave
ENCODING 249
SWIDTH 553 0
DWIDTH 4 0
BBX 5 6 0 0
BITMAP
006600
001500
0D0930
2B3C00
95A700
A96A00
ENDCHAR
STARTCHAR uacute
ENCODING 250
SWIDTH 553 0
DWIDTH 4 0
BBX 5 7 0 0
BITMAP
000300
001C10
003100
0D0930
2B3C00
95A700
A96A00
ENDCHAR
STARTCHAR ucircumflex
ENCODING 251
SWIDTH 553 0
DWIDTH 4 0
BBX 5 7 0 0
BITMAP
000100
004C40
015230
0D0930
2B3C00
95A700
A96A00
ENDCHAR
STARTCHAR udieresis
ENCODING 252
SWIDTH 553 0
DWIDTH 4 0
BBX 5 6 0 0
BITMAP
01D4B0
001010
0D0930
2B3C00
95A700
A96A00
ENDCHAR
STARTCHAR yacute
ENCODING 253
SWIDTH 549 0
DWIDTH 4 0
BBX 5 10 0 -3
BITMAP
000300
002B00
004000
0D0840
2B2E00
85A900
AA9300
02A000
2A2000
100000
ENDCHAR
STARTCHAR thorn
ENCODING 254
SWIDTH 552 0
DWIDTH 4 0
BBX 6 9 -1 -2
BITMAP
000400
003900
008500
00C9C0
02D1D1
0763B0
0C9A10
3A0000
830000
ENDCHAR
STARTCHAR ydieresis
ENCODING 255
SWIDTH 549 0
DWIDTH 4 0
BBX 5 9 0 -3
BITMAP
04B780
001100
0D0840
2B2E00
85A900
AA9300
02A000
2A2000
100000
ENDCHAR
STARTCHAR Amacron
ENCODING 256
SWIDTH 615 0
DWIDTH 5 0
BBX 7 7 -1 0
BITMAP
00008A70
00006D20
00075C00
00385800
02CADA00
0560C000
4901D400
ENDCHAR
STARTCHAR amacron
ENCODING 257
SWIDTH 543 0
DWIDTH 4 0
BBX 5 5 0 0
BITMAP
03AA20
078C30
582C00
A3A600
7A8B00
ENDCHAR
STARTCHAR Abreve
ENCODING 258
SWIDTH 615 0
DWIDTH 5 0
BBX 7 8 -1 0
BITMAP
00006360
00003A40
00006D20
00075C00
00385800
02CADA00
0560C000
4901D400
ENDCHAR
STARTCHAR abreve
ENCODING 259
SWIDTH 543 0
DWIDTH 4 0
BBX 5 6 0 0
BITMAP
009250
009800
078C30
582C00
A3A600
7A8B00
ENDCHAR
STARTCHAR Aogonek
ENCODING 260
SWIDTH 615 0
DWIDTH 5 0
BBX 7 8 -1 -2
BITMAP
00006D20
00075C00
00285800
02CADA00
0560C000
4900D400
00036000
00067000
ENDCHAR
STARTCHAR aogonek
ENCODING 261
SWIDTH 541 0
DWIDTH 4 0
BBX 5 6 0 -2
BITMAP
078C30
582B00
A3A600
7A8B00
008200
00A300
ENDCHAR
STARTCHAR Cacute
ENCODING 262
SWIDTH 533 0
DWIDTH 4 0
BBX 6 8 0 0
BITMAP
000074
000050
008980
0962B0
3C0830
760000
950100
3B9500
ENDCHAR
STARTCHAR cacute
ENCODING 263
SWIDTH 468 0
DWIDTH 4 0
BBX 5 7 0 0
BITMAP
000210
000B20
002200
089700
685700
A31000
6B8000
ENDCHAR
STARTCHAR Ccircumflex
ENCODING 264
SWIDTH 533 0
DWIDTH 4 0
BBX 6 8 0 0
BITMAP
0002B1
000533
008980
0962B0
3C0830
760000
950100
3B9500
ENDCHAR
STARTCHAR ccircumflex
ENCODING 265
SWIDTH 468 0
DWIDTH 4 0
BBX 5 7 0 0
BITMAP
000100
006D00
033320
089700
685700
A31000
6B8000
ENDCHAR
STARTCHAR Cdotaccent
ENCODING 266
SWIDTH 533 0
DWIDTH 4 0
BBX 5 8 0 0
BITMAP
000330
000540
008980
0962B0
3C0830
760000
950100
3B9500
ENDCHAR
STARTCHAR cdotaccent
ENCODING 267
SWIDTH 468 0
DWIDTH 4 0
BBX 4 6 0 0
BITMAP
0069
0001
0897
6857
A310
6B80
ENDCHAR
STARTCHAR Ccaron
ENCODING 268
SWIDTH 533 0
DWIDTH 4 0
BBX 6 8 0 0
BITMAP
000614
000582
008980
0962B0
3C0830
760000
950100
3B9500
ENDCHAR
STARTCHAR ccaron
ENCODING 269
SWIDTH 468 0
DWIDTH 4 0
BBX 5 6 0 0
BITMAP
009470
004400
089700
685700
A31000
6B8000
ENDCHAR
STARTCHAR Dcaron
ENCODING 270
SWIDTH 630 0
DWIDTH 5 0
BBX 6 8 0 0
BITMAP
002422
000960
1C9A60
0470C1
0B30C1
3B03B0
762C20
6AA200
ENDCHAR
STARTCHAR dcaron
ENCODING 271
SWIDTH 557 0
DWIDTH 4 0
BBX 7 7 0 0
BITMAP
00004330
0000C560
00058400
068D3000
491C0000
94890000
7A7C2000
ENDCHAR
STARTCHAR Dcroat
ENCODING 272
SWIDTH 630 0
DWIDTH 5 0
BBX 6 6 0 0
BITMAP
1C9A60
0570C1
6FC1C1
4A04A0
852C20
7A9200
ENDCHAR
STARTCHAR dcroat
ENCODING 273
SWIDTH 557 0
DWIDTH 4 0
BBX 6 7 0 0
BITMAP
000041
0029D2
000570
068D20
491C00
948900
7A7C20
ENDCHAR
STARTCHAR Emacron
ENCODING 274
SWIDTH 509 0
DWIDTH 4 0
BBX 5 7 0 0
BITMAP
007A80
03B960
0D3680
1C0610
1C9000
960200
6A9300
ENDCHAR
STARTCHAR emacron
ENCODING 275
SWIDTH 471 0
DWIDTH 4 0
BBX 4 5 0 0
BITMAP
06A9
0797
5977
9850
5B91
ENDCHAR
STARTCHAR Ebreve
ENCODING 276
SWIDTH 509 0
DWIDTH 4 0
BBX 5 8 0 0
BITMAP
005460
003A40
03B960
0D3680
1C0610
1C9000
960200
6A9300
ENDCHAR
STARTCHAR ebreve
ENCODING 277
SWIDTH 471 0
DWIDTH 4 0
BBX 5 6 0 0
BITMAP
036510
01B600
079700
597700
985000
5B9100
ENDCHAR
STARTCHAR Edotaccent
ENCODING 278
SWIDTH 509 0
DWIDTH 4 0
BBX 5 8 0 0
BITMAP
001600
001800
03B960
0D3680
1C0610
1C9000
960200
6A9300
ENDCHAR
STARTCHAR edotaccent
ENCODING 279
SWIDTH 471 0
DWIDTH 4 0
BBX 4 6 0 0
BITMAP
00A4
0010
0797
5977
9850
5B91
ENDCHAR
STARTCHAR Eogonek
ENCODING 280
SWIDTH 509 0
DWIDTH 4 0
BBX 5 8 0 -2
BITMAP
03B960
0D3680
1C0610
1C9000
860200
6AA300
091000
1B2000
ENDCHAR
STARTCHAR eogonek
ENCODING 281
SWIDTH 471 0
DWIDTH 4 0
BBX 4 6 0 -2
BITMAP
0797
5977
9840
5BA1
0910
0B20
ENDCHAR
STARTCHAR Ecaron
ENCODING 282
SWIDTH 509 0
DWIDTH 4 0
BBX 5 8 0 0
BITMAP
003340
001940
03B960
0D3680
1C0610
1C9000
960200
6A9300
ENDCHAR
STARTCHAR ecaron
ENCODING 283
SWIDTH 471 0
DWIDTH 4 0
BBX 5 6 0 0
BITMAP
019640
006200
079700
597700
985000
5B9100
ENDCHAR
STARTCHAR Gcircumflex
ENCODING 284
SWIDTH 598 0
DWIDTH 5 0
BBX 6 8 0 0
BITMAP
0003B1
000532
008980
0973B0
3C0520
774E70
850900
3B8200
ENDCHAR
STARTCHAR gcircumflex
ENCODING 285
SWIDTH 526 0
DWIDTH 4 0
BBX 5 9 0 -2
BITMAP
000100
005D10
024320
077A20
581D00
A38800
7AC300
01B000
2A2000
ENDCHAR
STARTCHAR Gbreve
ENCODING 286
SWIDTH 598 0
DWIDTH 5 0
BBX 6 8 0 0
BITMAP
000906
000791
008980
0973B0
3C0520
774E70
850900
3B8200
ENDCHAR
STARTCHAR gbreve
ENCODING 287
SWIDTH 526 0
DWIDTH 4 0
BBX 5 8 0 -2
BITMAP
009150
008910
077A20
581D00
A38800
7AC300
01B000
2A2000
ENDCHAR
STARTCHAR Gdotaccent
ENCODING 288
SWIDTH 598 0
DWIDTH 5 0
BBX 5 8 0 0
BITMAP
000330
000540
008980
0973B0
3C0520
774E70
850900
3B8200
ENDCHAR
STARTCHAR gdotaccent
ENCODING 289
SWIDTH 526 0
DWIDTH 4 0
BBX 5 8 0 -2
BITMAP
005900
000100
077A20
581D00
A38800
7AC300
01B000
2A2000
ENDCHAR
STARTCHAR Gcommaaccent
ENCODING 290
SWIDTH 598 0
DWIDTH 5 0
BBX 5 8 0 -2
BITMAP
008980
0973B0
3C0520
774E70
850900
3B8200
180000
270000
ENDCHAR
STARTCHAR gcommaaccent
ENCODING 291
SWIDTH 526 0
DWIDTH 4 0
BBX 5 8 0 -2
BITMAP
002800
002300
077A20
581D00
A38800
7AC300
01B000
2A2000
ENDCHAR
STARTCHAR Hcircumflex
ENCODING 292
SWIDTH 668 0
DWIDTH 5 0
BBX 7 8 -1 0
BITMAP
00007700
00033500
01B90480
00570940
00A99E30
02C04A00
06509300
2900A600
ENDCHAR
STARTCHAR hcircumflex
ENCODING 293
SWIDTH 555 0
DWIDTH 4 0
BBX 5 8 0 0
BITMAP
007200
197600
047000
085000
0B7D10
3D4C00
876700
B07A00
ENDCHAR
STARTCHAR Hbar
ENCODING 294
SWIDTH 668 0
DWIDTH 5 0
BBX 8 6 -1 0
BITMAP
01B80480
02ACADB1
00B99E20
02C04800
07509300
2900A700
ENDCHAR
STARTCHAR hbar
ENCODING 295
SWIDTH 555 0
DWIDTH 4 0
BBX 5 7 0 0
BITMAP
014000
09C400
084000
0C6D10
2D4C00
876700
B06A00
ENDCHAR
STARTCHAR Itilde
ENCODING 296
SWIDTH 327 0
DWIDTH 3 0
BBX 5 8 0 0
BITMAP
069410
048600
1AA000
04A000
086000
0C1000
490000
A10000
ENDCHAR
STARTCHAR itilde
ENCODING 297
SWIDTH 286 0
DWIDTH 2 0
BBX 4 6 0 0
BITMAP
4AA3
0000
0D00
2A00
8300
A600
ENDCHAR
STARTCHAR Imacron
ENCODING 298
SWIDTH 327 0
DWIDTH 3 0
BBX 4 7 0 0
BITMAP
08A7
1AA0
04A0
0860
0C10
4900
A100
ENDCHAR
STARTCHAR imacron
ENCODING 299
SWIDTH 286 0
DWIDTH 2 0
BBX 4 5 0 0
BITMAP
5AA1
0D00
2A00
8300
A600
ENDCHAR
STARTCHAR Ibreve
ENCODING 300
SWIDTH 327 0
DWIDTH 3 0
BBX 4 8 0 0
BITMAP
0636
03A4
1AA0
04A0
0860
0C10
4900
A100
ENDCHAR
STARTCHAR ibreve
ENCODING 301
SWIDTH 286 0
DWIDTH 2 0
BBX 4 6 0 0
BITMAP
1833
0A70
0D00
2A00
8300
A600
ENDCHAR
STARTCHAR Iogonek
ENCODING 302
SWIDTH 327 0
DWIDTH 3 0
BBX 5 8 -2 -2
BITMAP
001AA0
0004A0
000860
000C10
004900
01A100
091000
1B2000
ENDCHAR
STARTCHAR iogonek
ENCODING 303
SWIDTH 297 0
DWIDTH 2 0
BBX 4 8 -1 -2
BITMAP
0068
0011
00D0
01B0
0740
0970
0900
2A10
ENDCHAR
STARTCHAR Idotaccent
ENCODING 304
SWIDTH 327 0
DWIDTH 3 0
BBX 3 8 0 0
BITMAP
0150
0270
1AA0
04A0
0860
0C10
4900
A100
ENDCHAR
STARTCHAR dotlessi
ENCODING 305
SWIDTH 286 0
DWIDTH 2 0
BBX 2 4 0 0
BITMAP
0D
2A
83
A6
ENDCHAR
STARTCHAR IJ
ENCODING 306
SWIDTH 720 0
DWIDTH 6 0
BBX 6 8 0 -2
BITMAP
1AA8BC
04A41D
086059
0C10A3
4902C0
A10950
004A00
059000
ENDCHAR
STARTCHAR ij
ENCODING 307
SWIDTH 567 0
DWIDTH 5 0
BBX 5 8 0 -2
BITMAP
077680
010110
0D0B30
2A0C10
832B00
A67600
01B000
092000
ENDCHAR
STARTCHAR Jcircumflex
ENCODING 308
SWIDTH 393 0
DWIDTH 3 0
BBX 7 10 -2 -2
BITMAP
00005900
00024510
004BC400
0032A400
0000D100
00059000
000B3000
004A0000
01B20000
29300000
ENDCHAR
STARTCHAR jcircumflex
ENCODING 309
SWIDTH 282 0
DWIDTH 2 0
BBX 5 9 -2 -2
BITMAP
000010
0018A0
005150
001D00
001C00
006700
00B200
039000
291000
ENDCHAR
STARTCHAR Kcommaaccent
ENCODING 310
SWIDTH 616 0
DWIDTH 5 0
BBX 7 8 -1 -2
BITMAP
03C60B10
00861C00
00C4A200
01DC1000
08688000
2A01C700
00800000
01900000
ENDCHAR
STARTCHAR kcommaaccent
ENCODING 311
SWIDTH 497 0
DWIDTH 4 0
BBX 4 9 0 -2
BITMAP
0140
0490
0750
0B1D
2B96
8C60
B1C6
2600
4500
ENDCHAR
STARTCHAR kgreenlandic
ENCODING 312
SWIDTH 497 0
DWIDTH 4 0
BBX 4 4 0 0
BITMAP
1D0D
2C96
8C70
C1C6
ENDCHAR
STARTCHAR Lacute
ENCODING 313
SWIDTH 517 0
DWIDTH 4 0
BBX 6 8 -1 0
BITMAP
000019
000042
0008A4
005956
00C5C1
02B000
084000
1D9B80
ENDCHAR
STARTCHAR lacute
ENCODING 314
SWIDTH 279 0
DWIDTH 2 0
BBX 4 8 0 0
BITMAP
0046
0051
0550
0930
0C00
4800
9300
A700
ENDCHAR
STARTCHAR Lcommaaccent
ENCODING 315
SWIDTH 517 0
DWIDTH 4 0
BBX 6 8 -1 -2
BITMAP
0008A4
005956
00C5C1
02B000
084000
1D9B80
044000
063000
ENDCHAR
STARTCHAR lcommaaccent
ENCODING 316
SWIDTH 279 0
DWIDTH 2 0
BBX 3 9 0 -2
BITMAP
0230
0670
0A30
0C00
4800
9300
9700
7200
9100
ENDCHAR
STARTCHAR Lcaron
ENCODING 317
SWIDTH 517 0
DWIDTH 4 0
BBX 7 8 -1 0
BITMAP
00000060
000000B0
0008A530
00595600
00C5C100
02B00000
08400000
1D9B8000
ENDCHAR
STARTCHAR lcaron
ENCODING 318
SWIDTH 467 0
DWIDTH 4 0
BBX 5 7 0 0
BITMAP
023320
067740
0A3400
0C0000
480000
930000
970000
ENDCHAR
STARTCHAR Ldot
ENCODING 319
SWIDTH 668 0
DWIDTH 5 0
BBX 7 6 -1 0
BITMAP
0008A400
00595600
00C5C100
02B00A50
08400000
1D9B8000
ENDCHAR
STARTCHAR ldot
ENCODING 320
SWIDTH 489 0
DWIDTH 4 0
BBX 4 7 0 0
BITMAP
0230
0670
0A30
0C25
4837
9300
9700
ENDCHAR
STARTCHAR Lslash
ENCODING 321
SWIDTH 517 0
DWIDTH 4 0
BBX 6 6 -1 0
BITMAP
0008A4
005956
00C5C1
07E600
094000
1D9B80
ENDCHAR
STARTCHAR lslash
ENCODING 322
SWIDTH 279 0
DWIDTH 2 0
BBX 4 7 0 0
BITMAP
0410
08B3
0840
0C00
4800
9300
9700
ENDCHAR
STARTCHAR Nacute
ENCODING 323
SWIDTH 708 0
DWIDTH 6 0
BBX 7 8 0 0
BITMAP
00001A00
00003300
00B50D10
07B40C10
19851A00
65687300
A12C8000
A00A3000
ENDCHAR
STARTCHAR nacute
ENCODING 324
SWIDTH 561 0
DWIDTH 4 0
BBX 5 7 0 0
BITMAP
000300
001C10
003100
0D6D10
2D4C00
875700
B06B00
ENDCHAR
STARTCHAR Ncommaaccent
ENCODING 325
SWIDTH 708 0
DWIDTH 6 0
BBX 7 8 0 -2
BITMAP
00B50D10
07B40C10
19851A00
65687300
A12C8000
A00A3000
00800000
02800000
ENDCHAR
STARTCHAR ncommaaccent
ENCODING 326
SWIDTH 561 0
DWIDTH 4 0
BBX 5 6 0 -2
BITMAP
0D6D10
2D4C00
875700
B06B00
170000
270000
ENDCHAR
STARTCHAR Ncaron
ENCODING 327
SWIDTH 708 0
DWIDTH 6 0
BBX 7 8 0 0
BITMAP
00024220
00009600
00B50D10
07B40C10
19851A00
65687300
A12C8000
A00A3000
ENDCHAR
STARTCHAR ncaron
ENCODING 328
SWIDTH 561 0
DWIDTH 4 0
BBX 5 6 0 0
BITMAP
009470
004400
0D6D10
2D4C00
875700
B06B00
ENDCHAR
STARTCHAR Eng
ENCODING 330
SWIDTH 698 0
DWIDTH 6 0
BBX 7 8 0 -2
BITMAP
01B41D10
08B30D10
19941C00
74765600
B03B9100
A00C5000
00490000
05700000
ENDCHAR
STARTCHAR eng
ENCODING 331
SWIDTH 561 0
DWIDTH 4 0
BBX 5 6 0 -2
BITMAP
0D6D10
2D4C10
872A00
B09400
03A000
1A1000
ENDCHAR
STARTCHAR Omacron
ENCODING 332
SWIDTH 655 0
DWIDTH 5 0
BBX 6 7 0 0
BITMAP
0009A5
0089A1
088085
2D00A4
6801D0
750A50
2A9600
ENDCHAR
STARTCHAR omacron
ENCODING 333
SWIDTH 514 0
DWIDTH 4 0
BBX 5 5 0 0
BITMAP
02AA30
088800
692C00
A37800
699000
ENDCHAR
STARTCHAR Obreve
ENCODING 334
SWIDTH 655 0
DWIDTH 5 0
BBX 6 8 0 0
BITMAP
000916
0006A2
0089A1
088085
2D00A4
6801D0
750A50
2A9600
ENDCHAR
STARTCHAR obreve
ENCODING 335
SWIDTH 514 0
DWIDTH 4 0
BBX 5 6 0 0
BITMAP
009150
008910
088800
692C00
A37800
699000
ENDCHAR
STARTCHAR Ohungarumlaut
ENCODING 336
SWIDTH 655 0
DWIDTH 5 0
BBX 6 8 0 0
BITMAP
000459
000432
0089A1
088085
2D00A4
6801D0
750A50
2A9600
ENDCHAR
STARTCHAR ohungarumlaut
ENCODING 337
SWIDTH 514 0
DWIDTH 4 0
BBX 5 7 0 0
BITMAP
002130
00A760
022400
088800
692C00
A37800
699000
ENDCHAR
STARTCHAR OE
ENCODING 338
SWIDTH 900 0
DWIDTH 7 0
BBX 9 6 0 0
BITMAP
004AA9B910
03C15B1B10
0B40753400
1D005C4000
2B03D13000
0989A88000
ENDCHAR
STARTCHAR oe
ENCODING 339
SWIDTH 777 0
DWIDTH 6 0
BBX 7 4 0 0
BITMAP
068A8A20
3B0E4C20
764E6200
49AA9700
ENDCHAR
STARTCHAR Racute
ENCODING 340
SWIDTH 623 0
DWIDTH 5 0
BBX 6 8 -1 0
BITMAP
000029
000041
00AA97
00480D
009579
01DC60
067670
1A00C5
ENDCHAR
STARTCHAR racute
ENCODING 341
SWIDTH 407 0
DWIDTH 3 0
BBX 4 7 0 0
BITMAP
0003
0058
0040
1C88
2D30
7800
B100
ENDCHAR
STARTCHAR Rcommaaccent
ENCODING 342
SWIDTH 623 0
DWIDTH 5 0
BBX 6 8 -1 -2
BITMAP
00AA97
00480D
009579
01DC60
067670
1A00C5
008000
018000
ENDCHAR
STARTCHAR rcommaaccent
ENCODING 343
SWIDTH 407 0
DWIDTH 3 0
BBX 5 6 -1 -2
BITMAP
01C880
02D300
078000
0B1000
170000
360000
ENDCHAR
STARTCHAR Rcaron
ENCODING 344
SWIDTH 623 0
DWIDTH 5 0
BBX 6 8 -1 0
BITMAP
000334
000194
00AA97
00480D
009579
01DC60
067670
1A00C5
ENDCHAR
STARTCHAR rcaron
ENCODING 345
SWIDTH 407 0
DWIDTH 3 0
BBX 5 6 0 0
BITMAP
037830
007100
1C8800
2D3000
780000
B10000
ENDCHAR
STARTCHAR Sacute
ENCODING 346
SWIDTH 474 0
DWIDTH 4 0
BBX 5 8 0 0
BITMAP
000290
000410
05AA20
0D0750
1E1B10
097000
70C000
896000
ENDCHAR
STARTCHAR sacute
ENCODING 347
SWIDTH 423 0
DWIDTH 3 0
BBX 4 7 0 0
BITMAP
0003
0059
0040
1AA3
2C31
1960
A940
ENDCHAR
STARTCHAR Scircumflex
ENCODING 348
SWIDTH 474 0
DWIDTH 4 0
BBX 5 8 0 0
BITMAP
000950
004250
05AA20
0D0750
1E1B10
097000
70C000
896000
ENDCHAR
STARTCHAR scircumflex
ENCODING 349
SWIDTH 423 0
DWIDTH 3 0
BBX 4 7 0 0
BITMAP
0001
018A
0515
1AA3
2C31
1960
A940
ENDCHAR
STARTCHAR Scedilla
ENCODING 350
SWIDTH 474 0
DWIDTH 4 0
BBX 5 8 0 -2
BITMAP
05AA20
0D0850
1E1A10
088000
80C000
7A5000
190000
430000
ENDCHAR
STARTCHAR scedilla
ENCODING 351
SWIDTH 423 0
DWIDTH 3 0
BBX 4 6 0 -2
BITMAP
1AA3
2C21
0960
B940
4600
9400
ENDCHAR
STARTCHAR Scaron
ENCODING 352
SWIDTH 474 0
DWIDTH 4 0
BBX 5 8 0 0
BITMAP
003340
001940
05AA20
0D0750
1E1B10
097000
70C000
896000
ENDCHAR
STARTCHAR scaron
ENCODING 353
SWIDTH 423 0
DWIDTH 3 0
BBX 5 6 0 0
BITMAP
019740
006200
1AA300
2C3100
196000
A94000
ENDCHAR
STARTCHAR Tcommaaccent
ENCODING 354
SWIDTH 471 0
DWIDTH 4 0
BBX 5 8 0 -2
BITMAP
4CCB90
319300
00D000
049000
093000
380000
260000
450000
ENDCHAR
STARTCHAR tcommaaccent
ENCODING 355
SWIDTH 358 0
DWIDTH 3 0
BBX 4 7 0 -2
BITMAP
0750
3E81
4900
8400
6A30
6200
8100
ENDCHAR
STARTCHAR Tcaron
ENCODING 356
SWIDTH 471 0
DWIDTH 4 0
BBX 6 8 0 0
BITMAP
002422
000960
4CCB90
319300
00D000
049000
093000
380000
ENDCHAR
STARTCHAR tcaron
ENCODING 357
SWIDTH 497 0
DWIDTH 4 0
BBX 5 7 0 0
BITMAP
000150
0001A0
029310
0D9300
0C0000
390000
2C6000
ENDCHAR
STARTCHAR Tbar
ENCODING 358
SWIDTH 471 0
DWIDTH 4 0
BBX 5 6 0 0
BITMAP
4CCB90
11B200
3AE300
067000
0B2000
480000
ENDCHAR
STARTCHAR tbar
ENCODING 359
SWIDTH 358 0
DWIDTH 3 0
BBX 4 5 0 0
BITMAP
0750
3E81
7C60
8400
6B30
ENDCHAR
STARTCHAR Utilde
ENCODING 360
SWIDTH 624 0
DWIDTH 5 0
BBX 6 8 0 0
BITMAP
002B24
0053A1
059066
0760D1
0C17A0
581E50
B28B10
AA2A70
ENDCHAR
STARTCHAR utilde
ENCODING 361
SWIDTH 553 0
DWIDTH 4 0
BBX 5 6 0 0
BITMAP
019B60
000000
0D0930
2B3C00
95A700
A96A00
ENDCHAR
STARTCHAR Umacron
ENCODING 362
SWIDTH 624 0
DWIDTH 5 0
BBX 6 7 0 0
BITMAP
004AA1
059066
0760D1
0C17A0
581E50
B28B10
AA2A70
ENDCHAR
STARTCHAR umacron
ENCODING 363
SWIDTH 553 0
DWIDTH 4 0
BBX 5 5 0 0
BITMAP
01AA50
0D0930
2B3C00
95A700
A96A00
ENDCHAR
STARTCHAR Ubreve
ENCODING 364
SWIDTH 624 0
DWIDTH 5 0
BBX 6 8 0 0
BITMAP
001833
000A70
059066
0760D1
0C17A0
581E50
B28B10
AA2A70
ENDCHAR
STARTCHAR ubreve
ENCODING 365
SWIDTH 553 0
DWIDTH 4 0
BBX 5 6 0 0
BITMAP
009060
006A20
0D0930
2B3C00
95A700
A96A00
ENDCHAR
STARTCHAR Uring
ENCODING 366
SWIDTH 624 0
DWIDTH 5 0
BBX 6 8 0 0
BITMAP
000670
001AA0
059376
0760D1
0C17A0
581E50
B28B10
AA2A70
ENDCHAR
STARTCHAR uring
ENCODING 367
SWIDTH 553 0
DWIDTH 4 0
BBX 5 6 0 0
BITMAP
007940
006710
0D0930
2B3C00
95A700
A96A00
ENDCHAR
STARTCHAR Uhungarumlaut
ENCODING 368
SWIDTH 624 0
DWIDTH 5 0
BBX 6 8 0 0
BITMAP
000955
001340
059066
0760D1
0C17A0
581E50
B28B10
AA2A70
ENDCHAR
STARTCHAR uhungarumlaut
ENCODING 369
SWIDTH 553 0
DWIDTH 4 0
BBX 5 7 0 0
BITMAP
001230
009690
013400
0D0930
2B3C00
95A700
A96A00
ENDCHAR
STARTCHAR Uogonek
ENCODING 370
SWIDTH 684 0
DWIDTH 5 0
BBX 6 8 0 -2
BITMAP
02D029
04A0A5
0A33E0
2B0B90
766950
7B46B0
000810
000B30
ENDCHAR
STARTCHAR uogonek
ENCODING 371
SWIDTH 553 0
DWIDTH 4 0
BBX 5 6 0 -2
BITMAP
0D0930
2B3C00
95A700
A96A00
008200
00A300
ENDCHAR
STARTCHAR Wcircumflex
ENCODING 372
SWIDTH 941 0
DWIDTH 8 0
BBX 8 8 0 0
BITMAP
00003B10
00005320
2CA0002C
03B0750E
0B38D02C
2B6B7076
698842A0
4B05A810
ENDCHAR
STARTCHAR wcircumflex
ENCODING 373
SWIDTH 750 0
DWIDTH 6 0
BBX 6 7 0 0
BITMAP
000010
0018B0
004250
1D081C
1B6A0B
77C555
975B60
ENDCHAR
STARTCHAR Ycircumflex
ENCODING 374
SWIDTH 580 0
DWIDTH 5 0
BBX 6 10 0 -2
BITMAP
000680
003350
059066
0861D1
0C07A0
671E40
B28C00
BA7600
02A000
391000
ENDCHAR
STARTCHAR ycircumflex
ENCODING 375
SWIDTH 549 0
DWIDTH 4 0
BBX 5 10 0 -3
BITMAP
000100
006D10
024320
0D0840
2B2E00
85A900
AA9300
02A000
2A2000
100000
ENDCHAR
STARTCHAR Ydieresis
ENCODING 376
SWIDTH 580 0
DWIDTH 5 0
BBX 6 10 0 -2
BITMAP
004352
005472
059066
0861D1
0C07A0
671E40
B28C00
BA7600
02A000
391000
ENDCHAR
STARTCHAR Zacute
ENCODING 377
SWIDTH 501 0
DWIDTH 4 0
BBX 6 8 -1 0
BITMAP
000065
000050
00BBB9
0002E4
002D50
01C600
097000
1D9B70
ENDCHAR
STARTCHAR zacute
ENCODING 378
SWIDTH 430 0
DWIDTH 3 0
BBX 4 7 0 0
BITMAP
0003
003A
0040
0998
04B1
5A00
C990
ENDCHAR
STARTCHAR Zdotaccent
ENCODING 379
SWIDTH 501 0
DWIDTH 4 0
BBX 6 8 -1 0
BITMAP
000340
000450
00BBB9
0002E4
002D50
01C600
097000
1D9B70
ENDCHAR
STARTCHAR zdotaccent
ENCODING 380
SWIDTH 430 0
DWIDTH 3 0
BBX 4 6 0 0
BITMAP
00D1
0010
0998
04B1
5A00
C990
ENDCHAR
STARTCHAR Zcaron
ENCODING 381
SWIDTH 501 0
DWIDTH 4 0
BBX 6 8 -1 0
BITMAP
000514
000582
00BBB9
0002E4
002D50
01C600
097000
1D9B70
ENDCHAR
STARTCHAR zcaron
ENCODING 382
SWIDTH 430 0
DWIDTH 3 0
BBX 5 6 0 0
BITMAP
047820
007100
099800
04B100
5A0000
C99000
ENDCHAR
STARTCHAR florin
ENCODING 402
SWIDTH 466 0
DWIDTH 4 0
BBX 7 9 -2 -2
BITMAP
00002940
0000A390
00039430
002BD500
001D1000
001B0000
00570000
11A20000
5A800000
ENDCHAR
STARTCHAR AEacute
ENCODING 508
SWIDTH 878 0
DWIDTH 7 0
BBX 9 8 -1 0
BITMAP
0000006500
0000005000
00008CB860
00076D3770
002A1B0600
02CBBF9000
0660870200
4900788300
ENDCHAR
STARTCHAR aeacute
ENCODING 509
SWIDTH 770 0
DWIDTH 6 0
BBX 6 7 0 0
BITMAP
000030
000580
000400
078C9C
582D4D
A39C72
7A4B95
ENDCHAR
STARTCHAR Scommaaccent
ENCODING 536
SWIDTH 474 0
DWIDTH 4 0
BBX 5 8 0 -2
BITMAP
05AA20
0D0750
1E1B10
097000
70C000
896000
260000
460000
ENDCHAR
STARTCHAR scommaaccent
ENCODING 537
SWIDTH 423 0
DWIDTH 3 0
BBX 4 6 0 -2
BITMAP
1AA3
2C31
1960
A940
4400
7200
ENDCHAR
STARTCHAR dotlessj
ENCODING 567
SWIDTH 277 0
DWIDTH 2 0
BBX 4 6 -2 -2
BITMAP
001D
002B
0067
00C2
0490
2810
ENDCHAR
STARTCHAR circumflex
ENCODING 710
SWIDTH 354 0
DWIDTH 3 0
BBX 3 2 0 4
BITMAP
0440
7690
ENDCHAR
STARTCHAR caron
ENCODING 711
SWIDTH 381 0
DWIDTH 3 0
BBX 3 2 0 4
BITMAP
7590
2600
ENDCHAR
STARTCHAR breve
ENCODING 728
SWIDTH 344 0
DWIDTH 3 0
BBX 3 2 0 4
BITMAP
8160
5A30
ENDCHAR
STARTCHAR dotaccent
ENCODING 729
SWIDTH 217 0
DWIDTH 2 0
BBX 2 2 0 4
BITMAP
59
01
ENDCHAR
STARTCHAR ring
ENCODING 730
SWIDTH 402 0
DWIDTH 3 0
BBX 3 2 1 4
BITMAP
9A20
7600
ENDCHAR
STARTCHAR ogonek
ENCODING 731
SWIDTH 311 0
DWIDTH 3 0
BBX 3 3 0 -2
BITMAP
0510
5500
7600
ENDCHAR
STARTCHAR tilde
ENCODING 732
SWIDTH 397 0
DWIDTH 3 0
BBX 4 1 0 5
BITMAP
3AA3
ENDCHAR
STARTCHAR hungarumlaut
ENCODING 733
SWIDTH 392 0
DWIDTH 3 0
BBX 4 2 0 4
BITMAP
0872
7680
ENDCHAR
STARTCHAR pi
ENCODING 960
SWIDTH 640 0
DWIDTH 5 0
BBX 6 4 0 0
BITMAP
3ACEB1
082C10
2A2A00
C22C20
ENDCHAR
STARTCHAR uni1E02
ENCODING 7682
SWIDTH 551 0
DWIDTH 4 0
BBX 5 8 0 0
BITMAP
000600
001800
2A9A60
0862B0
1E2960
5DA900
931C00
699400
ENDCHAR
STARTCHAR uni1E03
ENCODING 7683
SWIDTH 525 0
DWIDTH 4 0
BBX 5 7 0 0
BITMAP
022000
085A50
0B1100
1D9A00
6A1D00
A26900
699100
ENDCHAR
STARTCHAR uni1E0A
ENCODING 7690
SWIDTH 630 0
DWIDTH 5 0
BBX 6 8 0 0
BITMAP
000610
000810
1C9A60
0470C1
0B30C1
3B03B0
762C20
6AA200
ENDCHAR
STARTCHAR uni1E0B
ENCODING 7691
SWIDTH 557 0
DWIDTH 4 0
BBX 6 7 0 0
BITMAP
000041
0690C0
001580
068D30
491C00
948900
7A7C20
ENDCHAR
STARTCHAR uni1E1E
ENCODING 7710
SWIDTH 518 0
DWIDTH 4 0
BBX 5 8 0 0
BITMAP
000510
000710
5CCB80
41B100
02C000
0BB700
0C1000
750000
ENDCHAR
STARTCHAR uni1E1F
ENCODING 7711
SWIDTH 393 0
DWIDTH 3 0
BBX 6 10 -1 -1
BITMAP
000100
000960
000581
002AA3
007510
03DB30
01C000
067000
0B2000
190000
ENDCHAR
STARTCHAR uni1E40
ENCODING 7744
SWIDTH 931 0
DWIDTH 7 0
BBX 9 8 -1 0
BITMAP
0000004200
0000006300
0002A71B60
0009B39B20
0074D56B00
01949A6700
0925D49400
6604A07B10
ENDCHAR
STARTCHAR uni1E41
ENCODING 7745
SWIDTH 814 0
DWIDTH 7 0
BBX 7 6 0 0
BITMAP
00078000
00011000
0D6C5D20
2D4C5C00
874A5800
B0925B00
ENDCHAR
STARTCHAR uni1E56
ENCODING 7766
SWIDTH 553 0
DWIDTH 4 0
BBX 6 8 -1 0
BITMAP
000042
000063
01B987
00580D
00A497
01D840
076000
2A0000
ENDCHAR
STARTCHAR uni1E57
ENCODING 7767
SWIDTH 550 0
DWIDTH 4 0
BBX 6 8 -1 -2
BITMAP
000950
000100
02B8B0
04D1D1
0863B0
0B9A10
2B0000
650000
ENDCHAR
STARTCHAR uni1E60
ENCODING 7776
SWIDTH 474 0
DWIDTH 4 0
BBX 5 8 0 0
BITMAP
001600
001800
05AA20
0D0750
1E1B10
097000
70C000
896000
ENDCHAR
STARTCHAR uni1E61
ENCODING 7777
SWIDTH 423 0
DWIDTH 3 0
BBX 4 6 0 0
BITMAP
00B4
0010
1AA3
2C31
1960
A940
ENDCHAR
STARTCHAR uni1E6A
ENCODING 7786
SWIDTH 430 0
DWIDTH 3 0
BBX 5 8 0 0
BITMAP
001600
001800
6CDB70
40C100
02B000
076000
0C1000
660000
ENDCHAR
STARTCHAR uni1E6B
ENCODING 7787
SWIDTH 358 0
DWIDTH 3 0
BBX 4 6 0 0
BITMAP
00C2
0490
1E82
1B00
5700
4B50
ENDCHAR
STARTCHAR Wgrave
ENCODING 7808
SWIDTH 941 0
DWIDTH 8 0
BBX 8 8 0 0
BITMAP
00009200
00002400
2CA0002C
03B0750E
0B38D02C
2B6B7076
698842A0
4B05A810
ENDCHAR
STARTCHAR wgrave
ENCODING 7809
SWIDTH 750 0
DWIDTH 6 0
BBX 6 6 0 0
BITMAP
000B00
000600
1D081C
1B6A0B
77C555
975B60
ENDCHAR
STARTCHAR Wacute
ENCODING 7810
SWIDTH 941 0
DWIDTH 8 0
BBX 8 8 0 0
BITMAP
00000740
00000500
2CA0002C
03B0750E
0B38D02C
2B6B7076
698842A0
4B05A810
ENDCHAR
STARTCHAR wacute
ENCODING 7811
SWIDTH 750 0
DWIDTH 6 0
BBX 6 7 0 0
BITMAP
000130
000760
000400
1D081C
1B6A0B
77C555
975B60
ENDCHAR
STARTCHAR Wdieresis
ENCODING 7812
SWIDTH 941 0
DWIDTH 8 0
BBX 8 8 0 0
BITMAP
00016250
00018360
2CA0002C
03B0750E
0B38D02C
2B6B7076
698842A0
4B05A810
ENDCHAR
STARTCHAR wdieresis
ENCODING 7813
SWIDTH 750 0
DWIDTH 6 0
BBX 6 6 0 0
BITMAP
0086B3
001010
1D081C
1B6A0B
77C555
975B60
ENDCHAR
STARTCHAR Ygrave
ENCODING 7922
SWIDTH 580 0
DWIDTH 5 0
BBX 6 10 0 -2
BITMAP
001A00
000410
059066
0861D1
0C07A0
671E40
B28C00
BA7600
02A000
391000
ENDCHAR
STARTCHAR ygrave
ENCODING 7923
SWIDTH 549 0
DWIDTH 4 0
BBX 5 9 0 -3
BITMAP
009300
003300
0D0840
2B2E00
85A900
AA9300
02A000
2A2000
100000
ENDCHAR
STARTCHAR endash
ENCODING 8211
SWIDTH 751 0
DWIDTH 6 0
BBX 6 1 0 2
BITMAP
2AAAA3
ENDCHAR
STARTCHAR emdash
ENCODING 8212
SWIDTH 1066 0
DWIDTH 9 0
BBX 8 1 0 2
BITMAP
1AAAAAA9
ENDCHAR
STARTCHAR quoteleft
ENCODING 8216
SWIDTH 268 0
DWIDTH 2 0
BBX 2 2 1 5
BITMAP
72
B1
ENDCHAR
STARTCHAR quoteright
ENCODING 8217
SWIDTH 268 0
DWIDTH 2 0
BBX 2 2 1 4
BITMAP
67
73
ENDCHAR
STARTCHAR quotesinglbase
ENCODING 8218
SWIDTH 268 0
DWIDTH 2 0
BBX 2 2 0 -1
BITMAP
75
82
ENDCHAR
STARTCHAR quotedblleft
ENCODING 8220
SWIDTH 485 0
DWIDTH 4 0
BBX 4 2 1 5
BITMAP
5581
B490
ENDCHAR
STARTCHAR quotedblright
ENCODING 8221
SWIDTH 480 0
DWIDTH 4 0
BBX 4 2 1 5
BITMAP
49A2
6480
ENDCHAR
STARTCHAR quotedblbase
ENCODING 8222
SWIDTH 463 0
DWIDTH 4 0
BBX 3 2 0 -1
BITMAP
75C0
8370
ENDCHAR
STARTCHAR dagger
ENCODING 8224
SWIDTH 488 0
DWIDTH 4 0
BBX 4 6 0 0
BITMAP
00B3
18E9
03B0
0750
0B00
2500
ENDCHAR
STARTCHAR daggerdbl
ENCODING 8225
SWIDTH 488 0
DWIDTH 4 0
BBX 4 6 0 0
BITMAP
00A3
17E9
03B0
2AB2
0B10
2500
ENDCHAR
STARTCHAR bullet
ENCODING 8226
SWIDTH 437 0
DWIDTH 4 0
BBX 2 2 1 2
BITMAP
CA
B7
ENDCHAR
STARTCHAR ellipsis
ENCODING 8230
SWIDTH 810 0
DWIDTH 6 0
BBX 6 2 0 -1
BITMAP
B5876A
101101
ENDCHAR
STARTCHAR perthousand
ENCODING 8240
SWIDTH 1184 0
DWIDTH 9 0
BBX 9 6 0 0
BITMAP
19B1640000
57B3900000
285A100000
0075761760
02975C84C0
0916977960
ENDCHAR
STARTCHAR guilsinglleft
ENCODING 8249
SWIDTH 413 0
DWIDTH 3 0
BBX 3 3 0 1
BITMAP
0470
4A00
0840
ENDCHAR
STARTCHAR guilsinglright
ENCODING 8250
SWIDTH 416 0
DWIDTH 3 0
BBX 3 3 0 1
BITMAP
0A20
05A0
3700
ENDCHAR
STARTCHAR fraction
ENCODING 8260
SWIDTH 580 0
DWIDTH 5 0
BBX 5 7 0 0
BITMAP
000130
000A20
004700
00A000
074000
1A0000
820000
ENDCHAR
STARTCHAR Euro
ENCODING 8364
SWIDTH 622 0
DWIDTH 5 0
BBX 6 6 0 0
BITMAP
003AA2
03C1B2
1DA400
3E8200
0D1000
06A910
ENDCHAR
STARTCHAR trademark
ENCODING 8482
SWIDTH 1084 0
DWIDTH 9 0
BBX 7 5 1 2
BITMAP
01000000
5C96C5B0
0A08A890
1A54D480
01100010
ENDCHAR
STARTCHAR Omega
ENCODING 8486
SWIDTH 839 0
DWIDTH 7 0
BBX 7 7 0 0
BITMAP
00010000
0597A200
2C002C00
69000D20
4B000E10
0B205800
7AB1DA30
ENDCHAR
STARTCHAR partialdiff
ENCODING 8706
SWIDTH 580 0
DWIDTH 5 0
BBX 5 7 0 0
BITMAP
004600
00B460
027680
1C2A60
960D20
B26A00
79A100
ENDCHAR
STARTCHAR Delta
ENCODING 8710
SWIDTH 663 0
DWIDTH 5 0
BBX 5 5 0 0
BITMAP
007300
039A00
080A20
450490
A777D0
ENDCHAR
STARTCHAR product
ENCODING 8719
SWIDTH 667 0
DWIDTH 5 0
BBX 5 8 0 -1
BITMAP
011110
4A56B0
6702C0
6702C0
6702C0
6702C0
6702C0
440160
ENDCHAR
STARTCHAR summation
ENCODING 8721
SWIDTH 677 0
DWIDTH 5 0
BBX 5 8 0 -1
BITMAP
011110
2E7650
0B7000
02E200
009400
057000
390000
7BBB60
ENDCHAR
STARTCHAR minus
ENCODING 8722
SWIDTH 617 0
DWIDTH 5 0
BBX 5 2 0 2
BITMAP
133310
255520
ENDCHAR
STARTCHAR radical
ENCODING 8730
SWIDTH 709 0
DWIDTH 6 0
BBX 7 8 0 0
BITMAP
00000230
00000A20
00003A00
0000A200
4D138000
293A1000
06960000
02C00000
ENDCHAR
STARTCHAR infinity
ENCODING 8734
SWIDTH 681 0
DWIDTH 5 0
BBX 6 4 0 1
BITMAP
010010
5A9CA1
77C8B1
031220
ENDCHAR
STARTCHAR integral
ENCODING 8747
SWIDTH 583 0
DWIDTH 5 0
BBX 7 10 -1 -2
BITMAP
00001720
0000A580
0003A430
00085000
000C1000
002B0000
00770000
34B10000
95900000
37000000
ENDCHAR
STARTCHAR approxequal
ENCODING 8776
SWIDTH 671 0
DWIDTH 5 0
BBX 5 4 0 1
BITMAP
047030
379C80
177140
63AB50
ENDCHAR
STARTCHAR notequal
ENCODING 8800
SWIDTH 617 0
DWIDTH 5 0
BBX 5 6 0 0
BITMAP
000320
001A00
28D840
27D730
0A2100
230000
ENDCHAR
STARTCHAR lessequal
ENCODING 8804
SWIDTH 704 0
DWIDTH 6 0
BBX 5 6 0 0
BITMAP
000120
006910
3B4000
188100
002930
388830
ENDCHAR
STARTCHAR greaterequal
ENCODING 8805
SWIDTH 617 0
DWIDTH 5 0
BBX 5 6 0 0
BITMAP
210000
187100
003C30
029600
471000
488830
ENDCHAR
STARTCHAR lozenge
ENCODING 9674
SWIDTH 580 0
DWIDTH 5 0
BBX 5 6 0 0
BITMAP
04C000
0A5600
630A10
650910
0A5600
03B000
ENDCHAR
STARTCHAR commaaccent
ENCODING 63171
SWIDTH 250 0
DWIDTH 2 0
BBX 2 2 0 -2
BITMAP
35
54
ENDCHAR
STARTCHAR ff
ENCODING 64256
SWIDTH 773 0
DWIDTH 6 0
BBX 9 8 -1 -1
BITMAP
0005815820
002AA4B930
0075166100
03CBBEB200
02C01C0000
0570580000
0B20A30000
1900900000
ENDCHAR
STARTCHAR fi
ENCODING 64257
SWIDTH 623 0
DWIDTH 5 0
BBX 7 8 -1 -1
BITMAP
00027700
000B1A20
00570800
03CAAA00
03C06600
0580B100
0A30C300
1B000000
ENDCHAR
STARTCHAR fl
ENCODING 64258
SWIDTH 637 0
DWIDTH 5 0
BBX 7 8 -1 -1
BITMAP
00028810
001C1840
00660B10
03DB4B00
02C07600
0580B100
0A30B500
1A000000
ENDCHAR
STARTCHAR .notdef
ENCODING -1
SWIDTH 896 0
DWIDTH 7 0
BBX 8 9 0 -1
BITMAP
00011110
00BFFFFC
02FBFAE8
06F289F4
0AF49FE0
0EC37EA0
4F8F7C60
7FFFFE10
01111100
ENDCHAR
ENDFONT
